<mxfile host="app.diagrams.net" agent="Mozilla/5.0 (Windows NT 10.0; Win64; x64) AppleWebKit/537.36 (KHTML, like Gecko) Chrome/131.0.0.0 Safari/537.36" version="24.9.1" pages="2">
  <diagram name="Page-1" id="FEkF0KDwQ8cbITNMfP08">
    <mxGraphModel dx="607" dy="317" grid="1" gridSize="10" guides="1" tooltips="1" connect="1" arrows="1" fold="1" page="1" pageScale="1" pageWidth="850" pageHeight="1100" math="0" shadow="0">
      <root>
        <mxCell id="0" />
        <mxCell id="1" parent="0" />
        <mxCell id="ahSrilYSVFXJQHNp7WFZ-5" value="Class Diagram" style="swimlane;whiteSpace=wrap;html=1;" vertex="1" parent="1">
          <mxGeometry x="225" y="124" width="295" height="216" as="geometry" />
        </mxCell>
        <mxCell id="ahSrilYSVFXJQHNp7WFZ-1" value="Rectangle" style="swimlane;fontStyle=1;align=center;verticalAlign=top;childLayout=stackLayout;horizontal=1;startSize=26;horizontalStack=0;resizeParent=1;resizeParentMax=0;resizeLast=0;collapsible=1;marginBottom=0;whiteSpace=wrap;html=1;" vertex="1" parent="ahSrilYSVFXJQHNp7WFZ-5">
          <mxGeometry x="15" y="30" width="240" height="170" as="geometry" />
        </mxCell>
        <mxCell id="ahSrilYSVFXJQHNp7WFZ-2" value="- length: int&lt;div&gt;- breath: int&lt;/div&gt;" style="text;strokeColor=none;fillColor=none;align=left;verticalAlign=top;spacingLeft=4;spacingRight=4;overflow=hidden;rotatable=0;points=[[0,0.5],[1,0.5]];portConstraint=eastwest;whiteSpace=wrap;html=1;" vertex="1" parent="ahSrilYSVFXJQHNp7WFZ-1">
          <mxGeometry y="26" width="240" height="44" as="geometry" />
        </mxCell>
        <mxCell id="ahSrilYSVFXJQHNp7WFZ-3" value="" style="line;strokeWidth=1;fillColor=none;align=left;verticalAlign=middle;spacingTop=-1;spacingLeft=3;spacingRight=3;rotatable=0;labelPosition=right;points=[];portConstraint=eastwest;strokeColor=inherit;" vertex="1" parent="ahSrilYSVFXJQHNp7WFZ-1">
          <mxGeometry y="70" width="240" height="8" as="geometry" />
        </mxCell>
        <mxCell id="ahSrilYSVFXJQHNp7WFZ-4" value="+ findArea(): int&lt;div&gt;+ print() : void&lt;/div&gt;&lt;div&gt;+ isGreaterThan(Rectange other) : bool&lt;/div&gt;&lt;div&gt;+ equals(Rectange other) : bool&lt;/div&gt;" style="text;strokeColor=none;fillColor=none;align=left;verticalAlign=top;spacingLeft=4;spacingRight=4;overflow=hidden;rotatable=0;points=[[0,0.5],[1,0.5]];portConstraint=eastwest;whiteSpace=wrap;html=1;" vertex="1" parent="ahSrilYSVFXJQHNp7WFZ-1">
          <mxGeometry y="78" width="240" height="92" as="geometry" />
        </mxCell>
      </root>
    </mxGraphModel>
  </diagram>
  <diagram id="Xa9DK4s74N6QyTkEgRms" name="Page-2">
    <mxGraphModel dx="880" dy="460" grid="1" gridSize="10" guides="1" tooltips="1" connect="1" arrows="1" fold="1" page="1" pageScale="1" pageWidth="850" pageHeight="1100" math="0" shadow="0">
      <root>
        <mxCell id="0" />
        <mxCell id="1" parent="0" />
        <mxCell id="urEJ1hMdNYAi65u0rG6w-10" value="hs1.Equals(hs2)" style="swimlane;whiteSpace=wrap;html=1;" vertex="1" parent="1">
          <mxGeometry x="20" y="20" width="800" height="820" as="geometry" />
        </mxCell>
        <mxCell id="urEJ1hMdNYAi65u0rG6w-11" value="hs1" style="swimlane;whiteSpace=wrap;html=1;" vertex="1" parent="1">
          <mxGeometry x="40" y="50" width="560" height="370" as="geometry" />
        </mxCell>
        <mxCell id="urEJ1hMdNYAi65u0rG6w-12" value="" style="shape=image;imageAspect=0;aspect=fixed;verticalLabelPosition=bottom;verticalAlign=top;image=data:image/png,iVBORw0KGgoAAAANSUhEUgAAAdYAAAEeCAIAAAC4w6PUAAAAAXNSR0IArs4c6QAAAARnQU1BAACxjwv8YQUAAAAJcEhZcwAADsMAAA7DAcdvqGQAADR+SURBVHhe7Z3rYSvJqoVPAGeyOblMJjsRR7LzuEFdYAFNvVotW1JL7fX9GDcUBdRDyxo/tv/zX0IIISdBCSaEkNOgBBNCyGnsSfD//vz9P+fr33/+ce+T+UerbuX++effr//7++d/D67+j5X54bpW+xPJHeneBwghpOX2u2DVwF8jwerVaneU6/bHM3/9C7PjG/kJIRfml0rwigdIsCvwPAMlmBBScQn2N4Wg1YipBKvPaYaKv5GhlX9kR4Lb/8G/URfBX/9uI1m3ZNmS1NTBJv0lf1NX6CXY7FFn781v8X1amQCTEHINVIIhGvJyh6ujkxhB1CGDXRhSNQbpEVb+KY3MOjYZA/E/+G6s66Zeo9UaD8Z1CdNU4pyuF4x5tiUMX444nh+am361homEkE9HJRivddgjU6lKqjSY8qiBoWTln+JvXqNcvgue+V2hpvlzQpieB6YwXZfOsWpuD9T1gmkewfzQ4W3orvxIrE5bi7gthBByHf7TSdXIKDE2o1A0ZRtphWblH5lJrc1p2+jaHvPPJHgzhXFdgs4ZOtxZrzDNk9jUbfSu/LkV+YB4QshlcAmWV707BgbtUzvj1Ro1BaIyvLNe+Sud3Kwl2G2YoOZP3fIhtTQPTKFLCCKqhFncznqneZKY7aN35c+jkQ8ZQAi5EvqFCH2hF5no6CSmSgaeUzIqmORGYeVPlhKMWjFXjd26nQSPdbt1gVjc5ry53mmeJPL56L351fH360sVeJ6fEPLR+E9EmAoHJgH+jrLBhaAM/P3zZ3vXZvoRFB1Z+aesJDieg1v5+/5Df3fWBboa4pmud5Wnd0c/ycH8CPYl737SIoR8Li7B1wNamO+CPxRI8KevghCyghL81qgAD++jCSGXgRL8pvjXK6i/hFyay0owIYS8P5RgQgg5DUowIYScBiWYEEJOY5Pg/Knbv/xFLEIIeQmbBOMHUN0ghBDyfFyCr/FTtIQQ8llQggkh5DQowYQQchopwf/mv4ZDCCHkNfwnfhBC3gFTfwkh5KXEu2D9OgTfBRNCyEvh14IJIeQ0KMGEEHIalGBCCDkNSjAhhJyGS7DAX1AmhJAXs0kw/5keQgh5MZsEE0IIeTGUYEIIOQ1KMCGEnAYlmBBCToMSTAghp/GmEoyfU+Y/HkQIuTYXl2DNov/6EHWcEPKOXPwLEZRgQsg783QJjl999t/7EPLXoDEQvxGy/UoI3gAb27tgc24mfpEkp2zZI6YkSVSM+/hWoP33U6jahJCX8CIJFqC8VUl9wPTOojaJFEwMe81FEjXLqExNv7qLgEZWNwGmbs8lgBJMCHklL3sXXDXOpdYk2GW0U1ihiixAIjxjEM+VSO+zRgmuDagZETAJIeSVnCLBblZJHRklODIJo4wW9iW4C1YowYSQc3i5BIcoyjMG4B+ZSHBqsCuwDkHTxfKYMiREtZKkNEAIIefyagmGruL5XgkW1Gnf2ts0vUgwnqvmxuCWBP2s6o4ZCCHkebzu23FO0b6pBPfxyqahLpGqwJtElgl///xp3gULmGB4nr5EiacEE0JeyavfBRNCCEkowYQQchqUYEIIOY2nSzAhhJAVlGBCCDkNSjAhhJwGJZgQQk6DEkwIIadBCW6I39pofvXjUXS/EvI3fqn6IXTJFfsFk8792KKEkB9ycQlW/bnnV92eJ8GeefGL0ff2uYP+el+pYmV9Of67f4seCCGvhxL8IkKB5528RoLD1EowCSHnchEJLv8QhMucKV6HS4+LUswRr+WoU4pmuYZlhU2/xv/3z1Qjq399YqdPoazLW7L42p6G1Lpq70hwG89/E4OQc7mCBKvILERkOuSqZ/7xXaGJUi/BKYsuYDaaYpdZdMKaTbGHLwVEF32f0geesy5EM/1qtROzKzBIcNMqJZiQc7mKBJuKuF1YSVuKbKdowlSCR8nrJiIIz/tA9EyHt6LTPitZV55RWJ0z6c9RsC/BhJBzucgXIlRXQCtkU2mDKLkxcFCC5XlfCvexhrcq0z4tayECUlXzAfHglgTr+F2tEkKex6W+HQdNqgKk9iBtECU3Bu6T4GSdcEoooacd++y0stZNxZcPGZDotB0JbusSQs7lUhIs9AI0UxyIkhsDNuW2BJtEfl/Loq+Sts1WJRjPffzfry9V4L4BDV1IsD17TuCZy3oJIa/kChIMFXGKToEy6oI1lWB/B91guRYSLM/9hKF0pU9/sE+n/2sgLp1Vasf+Lb5z50JADnd+QshruNq74Jdh2uVaqaZpotgwnw3KPUQ3Q8wpwYScACX4m4TkhgTbu8mXCVkU/2k5fxf8iFSEkG9ACf4+9vZx4zX660Ufor/IRf0l5DwowYQQchqUYEIIOQ1KMCGEnAYlmBBCToMSTAghp3ERCY5fMfh6+G95ZeJibj+Ldhx0+Kifmig/jNEv2Rs2tNFiCuLxOELIG/BLJTiE9HYwNFeA7MI8V4JVf+NTgj6XhaBK1dkoa83Hr2FgiBByOr/0CxEhpLcF0TXtzxd07XQJ7hrofk3OzKa9KsFhfqd/QsgzuIIEq6o4RWtce+x9n+K6U4KTPUkKzfpXNdj/yYXtadM+lz7TwKj69S+q1Xh4lCrH2SVi4fQCMSYj7iwxAirj+bYEW7qM3+pGjPV3JL7pH2FdY4SQm1znXbCJQNUOiJ3rkQtJjI5CtiI11zU4Z4a2eZgUgDu0COWhuTnTPDrFDO8WjVuapk+fsFXTJ/3YfiUB01G3RfNHm9FnJJJneUIzQtbFAtKf65LnaMGHKpRgQr7HxSV4KiXCjpp0pPZpBkmX5iJ/thGBOaGNbybog/sjXJ710VKpP/Lig8U61dNlE6Js1vUCMJNsR54zYRds/TTJCSE/hBJ8g9RES1je1C7yZxsRmBPa+CauQ8MlBhMQn2Q6mFknTO8DphBlm7qI70tH2pzSzRW2GaUHQsi3oQTfwNJoqDzL49efmLnIn23EvCzVxjdufYC/ggluBMMy3S5mky3KRoCGW9142vzm1ufoST5kQAUBY2+EkHv5pRKcSgRzhyqR+iwgUZEhPLo72oh58dEesh9E6dySpwMT3Ai6+FhHrCvWCVOIstF/yG6VYDw3eTTN/K9yAJ1QevMMUYgQcpCPl2CXpAbTktAeD1NN2SRGgGYYS6ERLM0WYLPcLJXtZyBQViOWErzR6Fc7ZNHiV+9Mmpv4NmAhwRu5IUIZuf1XOQRzBSVYyJZqfkLITa7zLpg8kPxM4vYBQrQpwYTcASWYTFA5bd/n7uPvgu+ZQggRKMGkwb/acJf+Yg71l5D7oQQTQshpUIIJIeQ0KMGEEHIalGBCCDkNSjAhhJzG20kwfrxp+uOl5VcJZLwJiF8N6P2EEPLOfJIEg/ilAUowIeTjuYgEE0LIJ/J0CQ5J9R/5FyCvndSqsNrP9ocf72q3+GSU4C209Qv+5hiU3x3wfwOBv01ACDmVF0mwACU1Q4VyX4LHeIQJq3fBox8ymyUqlGBCyDvwsnfBrnT5T3ntS/AYD1Mw8WykFox+ONwghJD34xQJNqW8Q4I3UzgowV0eQgh5Q14uwWrd8y444mEKd0mwzIRJCCFvyKslGDqZfn+2x6kEZ3xyUIIFy9rId8KvBRNC3oHXfTvOKXpaRspfnVjE934FE+Z+zGrGiuBSggkh78Cr3wUTQghJKMGEEHIalGBCCDmNp0swIYSQFZRgQgg5DUowIYScBiWYEEJOgxJMCCGncTUJvvm7c/f+hMZjf6ID2aYdEkJ+IVeTYPySnRuF9FOCCSHvw6Uk2PRt++3kpPrPlWBCCKlcSoIhlm4Uqj8kVf8LqrzavxxhxD8fMcQ3Er/Faxr1W9z2Jhf/GAXegG8lS4AQb42BD3XSr2miJR+I2kgOSj/bXELI23IdCR7/ZWHQ+VPv4DFDHvUZcRZlzyZ5XXz65VkGMm2Jb8u55abQeTx/1M1+bkiwgHJq6JP7I4YQ8hFcSIKLSFU6fy9tORwP7k89W0thpfoxAX5x5zPQSM1XCxUzh9d1dSCmVMU3/7YEQsj7cxEJ7gQrGf0zCTY9MwFruSHB/ZTGryk7WQdZcG5uk5d1MQB/x9ZRBBNC3pmrSHAIl9vB6O+lTS2Tq3iAP1lJIbRbHju/PmfV4kxs3tZSb6a9qCvPGIB/CubuxxBC3oGLSDAEyo3C6O+kDYKX/lG2VlJYJRjPKZEeZv8MfU5MLFY11k3MjbpqeP6tHzxmfjRk4UtQxA1CyLtyBQnOd5tuB1O/S1tSdKofKlK4fDfq/P3zZ/NrGIRV56WnTa54bxFs1CTbjO2viogfDSGmUrI0eQghb8sVJHglSSs/IYS8CR8vwXgLOfn//YWfEELeh4t8LZgQQj4RSjAhhJwGJZgQQk6DEkwIIadBCSaEkNOgBF+Q6Q9EE/JY7JptP/lOvsfHS3D3qxM/YftNiGMXq8Qbj/5tiHv7AdgQ6cXtNyOOy5fzpM8W8YswPxKI1f53v2Xz8K3Gz1MCKezeB/HA14tgG/GjTSaU4J74eeLbCVHYjadxvB+gXT36k8FNjhc9V4K/sTnd/nvmxbl/I/8ICsrDvUc/Mvbz2NfL/m6QI1CCez5agm0zHq9oN4myt+vGcXnki79mcrzPpJdgTaE2zI5v5O/AfZYc+vz2EiycdeUuw2UkWP8L8nr5p2invIoWfvAQCdYcib0GuqsfyuNmiT/UT82fOQWt0b7kQLPiCJjuQ/SZFZpX11i3pgiaKR2xDR5QJXjnXMa6Q5/uF0qWLcl+nyV/U1fo9t+/ShB7mNyb3+L7tDKhDNmkA5/jp/u26if2Lce3JoWtz7JATEA7GIEfIOHgtOiShKy4iAQLcknENENvofvjBt/0wxTs8jSeFTa3EDmRAM8aYxcxrr6n1SpxQWUg/Tq3vbhjP5nT7QKyuhHg5ZAlwI39sQLir/3s1N0Z6vD0DTZzfS7T5NGnr6vGg+k5TlOJE0mEul4w5tmWEN0mx/NDpNKvVkzslrbPzr652S2nTV7Xi4Ysajh3AW1HRoQB9bVbQQk+ztW+EGFnbyfv7uo3e+GHKWSg22vGmyd0dzQsv7xZKNuEmYz+sR9NVEok+fpwO0ACN4Ll/qz7XNUVvPCwnJFZXZu56Eeep3X7PiMPTCEX5LZxs8+6XjDNI5hfyR6Eu/IjsTptLeK2Z8v796+vOcrr5Bk7+yaM/azOt9vA6EhNfYwS037GKuQ4l5Rguy/xMfwetvLDFLqAHTDTjSDrwFTLr3hTSKvErbWRQnubp/1sM0owSogDJhgXCJb7s+5TmNYVvHDb5JSs42YWWPQDc6zb9xnzYQpdQjDt0zIV2oBpnsSmbqN35c+tyAdxZgarK175oLZlmnB737rltAE6HeXU3eF1MQHxU8Yq5DiXk+C8Dv3VDHvhhyl0ATtMr2Y2ADPbWV59qyePnR+msNOPv26iB5iZCkydQpd225dFnzBBV1fwGgc2LdLXujZz0Q9MUOv2fUYHMIUuIRj7/Mn+CzHbR+/Kn0cjHzIA1fCsw66E8+pC1163b7N+1LftW/QzbmCCCW7MuBlAdriaBOcNxl3Mm6EGrtrCD1Po7vQO05tXX3IoFXU13Huzx9qPx2PCPf1g0I3ZS06waup121jvD5blwRo1JBS6urGIeZOVSB/5s8CiH5hJ1l2de2L5+n0b+3zA/pf4e/Or4+/XlyrwJEO9Jxgd2d+3mg2szrfezw5McGMAEyWH24Z3td43klzn23FOuStxD4x6L2f+Po/S3N2RfkKmygHxxBVv/NJl8Zc821/f2OmndL8VBZiUL7CkyZX9rPdhfInK805docvl3oFIH/mjQDwHJf+07urcb57j2GeZcHv/e3f0kxzMj2BfcitwTbxeoEmVymrfQD8WB4DRer792sKPCRY+wSZpqNtGphqvIun4eAl+c+J+vu4i6kvutRVPoZOSDwXq+bmrwCnIdXO7EJ9cKME3oAQ/l9dLsL8BWb9tuQbXkOBP/3y5ut5+CX/BW4GfQwl+Lq+XYKH+3/1V+XQJtveIny1Sds3kBPr+8f6X+nsQSjAhhJwGJZgQQk6DEkwIIadBCSaEkNOgBJMlv+HbeuR0Vt/W+yV8vAQ/8Dvj9nM04PaFwE/dSGAxv6lWpa7x6G8l37WuBBsrvbj9ZsSx+3Ke9NnCf7jqnn0bWe1/JHcevtW2J44Udu+DeOxPpNhG/GiTPxdKcI/d29u3wcr+FfCyh3lTAiKqCcMC3HgaB9eVTFt9NseLxrF75Isl+Bub0+2/Z16c+zfyj6CgPNx79CNjP4993e3vxrWhBPfcJcF//nzJzdzMq0jwweU8nOn+TIlj98gXf83keJ9JL8GaQm2YHd/I34HXheTQ57eXYOGsK3c6l5Fg/S/Ia+GfWp1y+xd+cJ8E/+9f1WD/zXu/QNP81RV4vA4tJFh7SVDIkm9rdOVxs8QfWlfNnzmFWE0TLDQri4DpeqPPrOCLBWPdmiJopnTENnhAleBpP2CsO/TpfqFk2ZLs91nyN3WFbv/9qwSxh8m9+S2+TysTypBNOvA5frpvq35i33J8a1LY+iwLxAS0gxH4ARIOTosuSa7HRSRYkMMV0wy9Pe6Pm3fTD1OwQ288U+LCSLhdkDD382cUTGAxhZiLRvC8pbf8khF+7TYSykD6dW5baFzXtBmArG4EeDlkCXBjn62A+Gs/O3V3hjo8fYPNXO//NHn06euq8WB6H6apxIkkQl0vGPNsS4huk+P5IVLpVysmdkvbZ2ff3OyW0yav60VDFjWcu4C2IyPCgPraraAEfwA4zO0K5h10d/WbvfDDFDLQ7QV5hzRewtPczZ9RMAFmuBFkQpg5sV+vpB8SCqN/XJcmKiUSlJABtwMkcCNYrXenz1VdwQsPyxmZ1bWZi37keVq37zPywBRyQW4bN/us6wXTPIL5lexBuCs/EqvT1iJue7a8/Osbb88lJdjOOT6G38NWfphCF7Ai75ZlwP+QmbmbP6NgAkS4EWS/MHNiv14pFwltpNAWmq5rm1GCUUIcMMG4UWC13p0+hWldwQu3TU7JOm5mgUU/MMe6fZ8xH6bQJQTTPi1ToQ2Y5kls6jZ6V/7cinwQZ2awuuKVD2pbpgm3961bThug01FO3R1eFxMQP2Ws8hu4nATnMfZXKuyFH6bQBazIQvIsj19/btSFOb1kWIAbQc0v5MTl1bdC8tj5YQpdYxV/3UQPMDMVmDqFLu22/kWfMEFXV/AasyY7In2tazMX/cAEtW7fZ3QAU+gSgrHPn+y/ELN99K78eTTyIQNQDc867Eo4ry507XX7NutHfdu+RT/jBiaY4MaMmwGX5GoSnDcPdyhPVA1ckYUfptDdxRX1qumz/h8fCuzlt0GflUxvXn3JIaWnt8KIx2P4SzwmmF9zGeZbrguDbsxecoJVU6/bxmq9q5cozKSrG4uYN1mJ9JE/Cyz6gZlk3dX9SSxfv29jnw/Y/xJ/b3518K9vfCbX+XacU844zs+o92nm7/MozZ3riAvjAZbRzVVd0I2Jpy8cU7aOxCPTRr+stvhLHv71jaDkn9Zd3Z+b92Hss0zgX9/wUCX8mGDhE2yShrptZKrxKl6Gj5fgX0Lcz9ddRH3JvbbiKXRS8qFAPT93FTgFuW5uF+KTCyWYnMrrJdjfgKzftlyDa0jwp3++XF1vv4SXfitACf4MXi/BQv2/+6vy6RJs7xE/W6TsmskJ9P3j/e+19VegBBNCyGlQggkh5DQowYQQchqUYEIIOQ1KMHkYv+Hbd+R0Vt+++1A+XoIf+B1t+/kXcPSA8TMzQLTHve9EaXDDvsn84J8EQML33AQhluvrfdJnC/8hqp8JRDmyJk8kdx6+1bYnzgMvBnjsfbON+NEmvw+U4B67h4dOFy+ILP2/P18Pf0lrCdNLt38AluXGE/btga0e53jRWK5HvliCv7E53T30zIsf0/5G/pG8IcdfAivGfh573/Z347OgBPccvH94y/DAulMe8tIC+QIDD35JRKNuv4rj+xPL9cgnSfCKb5xjL8GaYnle38jfgfsgOfT52Etgh7Gfx79Oo4bbH8tlJFj/C/KYMRSU27zwg6MSvA5DQxag4FqD8PU/cL75I2dtMdgu3DTPTl1B3RMJzjpbcmHsJ+JzpInXsdJJ0ux0BEz3fz9/6UcniKemCJopHZ4+OqwSvHMfxrpDn+4XSpYtyX6fJX9TV+gumH+VIPYwuTe/xfdpZUIZskkH3mBO923VT+xbjm9NClufZYGYgHYwAj9AwsFp0SXJ+3MRCRbksMQ0Q2+D++Mm3fTDFOwQG88Unbg4actZL54+iR+JEaPPMV1C0HznF6ZVdvJM64I6S+j27WY/Ee85azxMsfCcxGvZY8Bq/3fy60CpVdkZ6ojlVmzmoh9/HpJ3+1bjwfT+TFOJE0mEbj+FMc+2hHKO4Hh+iFT61YqJ3dL22dk3N7vltMnretGQRQ3nLqDtyIgwoL52KyjBJ4DD2a5U3il3V7/ZCz9MIQPdXhBXwu+04VdEhyLDVlcftjs0vVJCRLk/q8AUdvJM61qUAtsNDdDwDOjqJunficeQWBhKuoog0kSe6HMnvw6YgaGKFx7aHpnVtZmLfuR5WrfvM/LAFHJBbhs3+6zrBdM8gvmV7EG4Kz8Sq9PWIm57trz8Kxsv55ISbOcWH8PvYSs/TKELWFHvh1BvEjLCn1idDo/vh8qt0pH2ku3kmdZNsCw3tGGEe+Zof9nPXrwNiYUhMG4sWO3/Tn5Bx0ozcApeuHhWZB03s8CiH5hj3b7PmA9T6BKCaZ+WqdAGTPMkNnUbvSt/bkU+iDMzWF3xyge1LdOE2/vWLacN0Okop+4Or4sJiJ8yVvlELifBeSz9FQl74YcpdAErcHVyouXZuzrZmNsBGpABNz2Nh+VqYAqrPMK0boJluaF1Ee55su6qn1W8PkdPGAJTp2Dpt+3dzmOdP0GMBLl9z4sw0te6NnPRD0xQ6/Z9RgcwhS4hGPtc7TNMYZonidk+elf+PBr5kAGohmcddiWcVxe69rp9m/Wjvm3fop9xAxNMcGPGzYCP4GoSnDcJdyJPSA0c+cIPU+ju1g6WyG+PpfXn6c1AnzO/t5DPtZ8YLO0t8gj7N1IzldHlS2LRzyoepo4VE1ij6nXb8JzRiRe7lT/R+LqKmO/2mkgf+bPAoh+YSdbt+kx/Yvm2QmDsc7XPGBWmeZLI56P35lcH/8rGe3Cdb8c55cziPIx6P2b+Po/S3KEp7RyPX12dvkSULt7+ryEIXa/i2cuzvrKap9kchHuhfEnI87SfnXg1bU6OJiXV1ufO/k/zl+gtPulyuXcg0kf+KBDPQck/rdtvfmxp71eafsY+ywT+lQ0PVcKPCRY+wSZpqNtGphqv4tvy8RJM3gR9yQ2vw+vRScmHAvX83FXgFOS6uV2ITy6UYPLL8Dcg67ct1+AaEvzpny9dgIf+/RJ+1NIoweRh1P+7vyqfLsH2HvGz9deumZzAoL9Y26ctjRJMCCGnQQkmhJDToAQTQshpUIIJIeQ0KMHksvyGbw+S01l9e/AgHy/BD/wOtf08Czi6ofgZGCCvdfe+E6XBDfum8TP2zXj0t6S/cS4CFviehyLE9vtynvTZwn9I6559G1ntfyR3Hr7VtifOQy5q5YH3X7CN+OYmU4J77NwP7SYuYJb+tX81A4nceBrHzwU8cOuOc7xobL9HvliCv7E53f575sW5fyP/SN7Ye49+ZOznsbqxvxv7UIJ7Dp43PkU/sO6Uh1xlkBcaPHDfkMiNp3HX69AW93hFu8nx84rt98gnSfCK430m3f6H5swzfCN/B+6n5NDne45+ytjP43Ujarh9mMtIsP4X5LZiKCi3Z+EHB897JwwNWYCCawTC1//f+uaPnLXFYDvgaZ6duoK6JxKcdbbkwthPxOfIFo8BPHeUPN5q5PG52m1Zwlg3mW54zZ85Ba1R0ibNyUfA9D7srFcY69YUQTOlI7bBA6oET/sBY92hT/cLJcuWZL/Pkr+pK3T7718liD1M7s1v8X1amVCGbNKBz/HTfVv1E/uW41uTwtZnWSAmoB2MwA+QcHBadEkychEJFmRzxDRDd9/9cXI3/TAF27TGM0UnLnbWctaD1ifxIzFi9DmmSwia7/zCtMpOnmldUGcJ3b7d7CfiPeekblJ7q/tc8mR+3e3dujCF8Vwyp9sFZHUjwMshSwBfV+3TqtxY76LuzlBHbH/FZi768echefTp66rxYHqfp6nEiSRCXS8Y82xLKPcKHM8PkUq/WjGxW9o+O/vmZrecNnldLxqyqOHcBbQdGREG1NduxS+S4O0I8wzdXf1mL/wwhQx0e0Ecgd8hw49EhyLDVlcftjObHqEQUe7PKjCFnTzTuhalwHZDAzQ8A7q6Sfp34jEAf9ItMKy9PJXRrx6dt3k0USmRoIQMuB0ggRtBtBP9ZJn99c7qCl54WM7IrK7NXPQjz9O6fZ+RB6aQC3LbuNlnXS+Y5hHMr2QPwl35kVidthZx27Pl/QV/xeOSEmz7FB/D72ErP0yhC1hRz0OoJ4eM8CdWp8Pj+6FyijrSHupOnmndBMtyQxtGuGeO9pf97MRP60a4x6t1K8+0LsKE6blsM0owSogDJhgPGnRpM2ynT2FaV/DCbZNTso6bWWDRD8yxbt9nzIcpdAnBtE/LVGgDpnkSm7qN3pU/tyIfxJkZrK545YPalmnC7X3rltMG6HSUU3eH18UExE8ZqxzhchKc29AfSdgLP0yhC1iBo8qJlmfvqLIxtwM0IANuehoPy9XAFFZ5hGndBMtyQ+si3PNk3VU/q3h5ntbt+gxrmWd/HwQbn5+Lv26iB5iZCkydQpc278POepOuruA1Zk12RPpa12Yu+oEJat2+z+gAptAlBGOfP9l/IWb76F3582jkQwagGp512JVwXl3o2uv2bdaP+rZ9i37GDUwwwY0ZNwOmXE2C8+RwBrkjamCLF36YQneWO1giPy1L68/Tk0CfM7+3kM+1nxgs7S3yCPs3QDOV0eUVXPSzipfnad0mj6WpeRCPx/DP62ouw3zLc8GgG2ipnS5YNfW6bXitmOtNRJ/T9Va6urGIeZOVSB/5s8CiH5hJ1u36TH9i+fp9G/t8wP6X+Hvzq+O3/hWP63w7zil7FOs36nnM/H0epTmzKe0cj18dVV8iShfvR/7VjLabrZ+tTfGU+NJ+/v/ljbotOiDxuqIkkgBMym6TJlf2s74P0/Xu1BW6XO4diPSRPwrEc1DyT+v2+xNHvLNvYOyzTOBf8fBQJfyYYOETbJKGum1kqvEqJh8vweQjiPu5vIgPR19yr614Cp2UfChQz89dBU5BrpvbhfjkQgkmp/J6CfY3IOu3LdfgGhL86Z8vV9fbL+Hu0ijB5BW8XoKF+n/3V+XTJdjeI362/to1kxPo+8f735tLowQTQshpUIIJIeQ0KMGEEHIalGBCCDkNSjD5Fd+2Iqez+rbVL+fjJfiB3xG2nx8Bhy5KCNdTrlRpZsOqPfg74Egomd1+M2K5vt4nfbbwHx76mUCUI2vyRHLn4Vtte+I88GKAx94324gfbfL1oAT32H0+dEueKsEJ2nHjCevVdM9fRcfxorFcj3yxBH9jc7r745kXP578jfwjeUOOX90VYz+PvW/7u/E7oQT3/CoJtmSPV7SbRNkDm+zL9cgXf83keJ9JL8GaYnle38jfgfsgOfT58NVdMfbz+NdX1HD713MZCdb/grwuGArKq2LhBw+RYM0B2oDNX/oUVn4B7bgxWW9zm0seX0LE50gTr2OzJTQ7FAHTfdvPP66rpgiaKR2ePjqsErxzjmPdoU/3CyXLlmS/z5K/qSv0Emx27mFyb36L79PKhDJkkw68wZzu26qf2Lcc35oUtj7LAjEB7WAEfoCEg9OiS5Lfw0UkWJBDF9MMvVXujxt50w9TsMvQeFZo5OzSIMH2HDFaaxa/8oOaTejW2+WHs/ojXo3qzzCx8JzEa9ljwI39nOXXgVKrsjPUEcut2MxFP/48JO/2rcaD6blPU4kTSYRuP4Uxz7aEco7geH6IVPrr3euWts/OvrnZLadNXteLhixqOHcBbUdGhAH1tVtBCf5gcMjb1cy76e7qN3vhhylkoNtrspTbRjbgZrmC+liGkpUfoB03NL8vwM1ZD0L6d+IxJBaGkq4iWO3bTn4dMANDFS88tD0yq2szF/3I87Ru32fkgSnkgtw2bvZZ1wumeQTzK9mDcFd+JFanrUXc9mx5f8Ffl7gql5RgO//4GH4PW/lhCl3ADho53CTL17Hd1G2wnbjyC2jHjaHh2kNf2vx78TYkFobAuCFgtW87+QUdK83AKXjh4lmRddzMAot+YI51+z5jPkyhSwimfVqmQhswzZPY1G30rvy5FfkgzsxgdcUrH9S2TBNu71u3nDZAp6Ocuju8LiYgfspY5TdzOQnO4+2vWtgLP0yhC9hBI4eblA24PcPv7/hOc+ZHO25ETDacPWAh8jj45/H6HL1iCEydgqWf7NtO/gQxEuT2PS/CSF/r2sxFPzBBrdv3GR3AFLqEYOxztc8whWmeJGb76F3582jkQwagGp512JVwXl3o2uv2bdaP+rZ9i37GDUwwwY0ZNwN+FVeT4LyRuFt50mrg6iz8MIXuju6Q19FtA/1k/hUo4kZh9Hee5UvC+pZHi9Hn8M/jYerYsARbgHrdNtb7uZc/0fi6ipjv9ppIH/mzwKIfmEnWXd2TxPJthcDY52qfMSpM8ySRz0fvza+O3/rXJa7Kdb4d55Szj3M16j2b+fs8SnMXR2oaw+P7VFGiCS/9rPxAR5tF4YZ7TL4k5LlUPfTXLtS0OTmaNAuI+J19m+Yv0Yt1OTrm3oFIH/mjQDwHJf+0bn8osaW9X2n6GfssE/jXJTxUCT8mWPgEm6ShbhuZaryKl+fjJZj8EH3JDa/D69FJyYcC9fzcVeAU5Lq5XYhPLpRg8svwNyDrty3X4BoS/OmfL12Ah/79Ev6CtwIjlGCC91Z6/d2+Ip8uwfYe8bNFyq6ZnMCgv1jbr9RfgRJMCCGnQQkmhJDToAQTQshpUIIJIeQ0KMHk7fgN3x4kp7P69uCL+XgJfuB3uu3nYsChgwmheMoRlmY2rNoz1ms8ei337ifAAqUXt9+M2H5fzpM+W/gPad2zbyOr/Y/kzsO32vbEechFrTzw/gu2ET/a5J9DCe6x+3PoVJ4qwQnaceOh60UiN57G8f0E2tXzd7XjeNHYfo98sQR/Y3O6/ffMi3P/Rv6RvLH3Hv3I2M9jX+/7u/EaKME9x+9NvPoeVnpKXmjwwPUikRtP467XoS3u8Yp2kyh74NB9+z3yxV8zOd5n0u1/aM48wzfyd+B+Sg59vufop4z9PP71HjXcfjmXkWD9L8jjwVBQbuHCD47fm3j1TSI1B2gDNn/pU1j5BbTjxmS9ze0peXwJEZ8jWzwG8NxR+8ESIo/P7dY+1k2m+1nz1/VqjXbHQHNiETA9x531CmPdmiJopnTENnhAleBpP2CsO/TpfqFk2ZLs91nyN3WFbv/9qwSxh8m9+S2+TysTypBNOvA5frpvq35i33J8a1LY+iwLxAS0gxH4ARIOTosuSZ7HRSRYkE0W0ww9RffHDbjphynY5jeeFRo5OyQk2J4jRmvN4ld+ULMJ3Xq7/HBWf8SrUf3y7ImS2nPdn5In89e1T+vCFMb9zJxuF5DVjQAvhywBbpyvFRB/7Wen7s5QR2x/xWYu+vHnIXn06euq8WB6D6epxIkkQl0vGPNsSyj3ChzPD5FKv1oxsVvaPjv75ma3nDZ5XS8asqjh3AW0HRkRBtTXbgUl+A6wqdtVyLvg7uo3e+GHKWSg22uylNtGNuBmOXJ9LEPJyg/Qjhua3xfg5qwHIf078RiAP6kNC2Ht5amMfvXovM2jiUqJBCVkwO0ACdwIop3oJ8vsr3dWV/DCw3JGZnVt5qIfeZ7W7fuMPDCFXJDbxs0+63rBNI9gfiV7EO7Kj8TqtLWI254tL/+Kx2EuKcG23/Ex/B628sMUuoAdNHI4OcvXsd2MbbCduPILaMeNoeHaQ1/a/DvxGIA/iXCPV+tWnmldhAnT/dxmlGCUEAdMMB4Q6NJm2E6fwrSu4IXbJqdkHTezwKIfmGPdvs+YD1PoEoJpn5ap0AZM8yQ2dRu9K39uRT6IMzNYXfHKB7Ut04Tb+9Ytpw3Q6Sin7g6viwmInzJWeSWXk+Dczv5ow174YQpdwA4aOZxcNuD2DL8vo/zN/GjHjYjJhrMHLEQeB/88Xp4xAH/S9R/WMs+qLkzBxuf72a0XZqYCU6fQpd3OddEnTNDVFbzGrMmOSF/r2sxFPzBBrdv3GR3AFLqEYOzzJ/svxGwfvSt/Ho18yABUw7MOuxLOqwtde92+zfpR37Zv0c+4gQkmuDHjZsBTuZoE5w3AWebOqoGjWvhhCt2d2CGP320D/WT+FSjiRmH0d57lFbS+5dFi9Dn883h5nt68Jo+lqXkQj8fwz+tqLsN8y/3EoBuzl5xg1dTrtuG1Yq43EX1O11vp6sYi5k1WIn3kzwKLfmAmWbfrM/2J5ev3bezzAftf4u/Nrw7+FY+fcZ1vxzllr2MfjXquM3+fR2nOfqSmMTy+TxUlmvDSz8oPdLRZFG6Ux+QVlOdS9dBfzegXHP6tffGU+LKs/P/LG3VbdEDidUVJJAGYlN0mTa7sZ32O0/Xu1BW6XO4diPSRPwrEc1DyT+v2+xNHvLNvYOyzTOBf8fBQJfyYYOETbJKGum1kqvEqPpyPl2DyVOJ+Pv0iJvqSe23FU+ik5EOBen7uKnAKct3cLsQnF0owOZXXS7C/AVm/bbkG15DgT/98ubrefglfsjRKMNnj9RIs1P+7vyqfLsH2HvGz9deumZxA3z/e/75saZRgQgg5DUowIYScBiWYEEJOgxJMCCGnQQkmhJDTuJoEx88pTr/LOfETQsiJXE2CRWn/zn7QeuV/Es/+Wa5TflaMEPJwLiXB8asuw1vghf95UIIJIUe4lASrMM1+q2r045dfnNAy/5UYx79qET9Cjx/XFhopT6+AH7OvKQKfgkT+g9/mFWf3I/o6WrR17HMn/7R/YVqXEPIOXEeCV7+uPvohRl2k61cotRvbP3fiMqdTQyJ1IJ47pkNIBL9l3Z6ymSrB0z7BmH/Vfzz3dRFGCDmXC0lwEa/K6FdlG94shxJ6WAr3jkSatM3lLISuGbJ4L3Ek/7RPMOZf9S/P07oWRQg5mYtIcCdkyehfRoYkupmS1sZXiRR0DLSCqP6pBI/Sv8i/6hOM+Vf9y/O0LiHkHbiKBLvg9II1+qFNIl9uB4OEhd1KYSfBADES5PbjJHjsE4z5V/3L87QuIeQduIgEQ7jcKEz9KkkmYG4b0KyUKjVM445IsKDxReYsWV9iKoVVvvGY+ad9gjH/qn95ntYlhLwDV5BgU5+JVK38ArTOCalyFQObEwrmSSKlmiV6i0+6XOJZSaErr9L8NQph2icY80/7F1Z1CSGncwUJXkkMpYcQ8uZ8vATjrV++S01WfkIIeR8u8rVgQgj5RCjBhBByGpRgQgg5DUowIYScBiWYEEJOgxL8i9j5QWlCyPewl9XX+Ku5B/l4CY7fnPD1P0ll/HfYfrDRAlIYTZ5I7kj3PvBQUOWpyX+4P4/iqfvZJVf0uvXuHxZ9n/3MRoqpC4Z5HKxI1uP2z9AfOHX6LaoHoY0WU3jsZUisyDcPixJ8iNVLQr1a7Y5y8fPK2bAfH8yOb+RfcVeqe+u+kWS8aj9xjG5IXU3ty8fPpK96OMK9+/nAdXVYI38FyZ4mnu8CK5L1uP0D6s7rc1k4qogDphBlrfkfn8uK/Vu3DyX4R/iB33P1ewn2s5tn+Eb+KXEzj+Z5VN3X85r9FKoQCP09vHPDf8jzzssX8udL0m/meRLcNQBVzbTjyz/KRsB3+7/JtzNfWYLjrQTYYgQ9twDnF1dkG8lzLVm2JDV1sB1Ayd/UFXoJNtumNmH35rf4Pq1MgKmjQwmh5NHJ4tmpq0MSFHOa5E5tAOFZYWu+PRclU43snMuU1+ynoPaOBA/xxymt3t7P/XWN3L2fGi4J/1UN3v79vuU/X6UPkf3rX3RX4+FRat2tG4uF0wvEmIy4s8QIqIxnK6/DMIVoM/psz2WrGzHW35H4pn8ht8ZtA9Otoya4cg0J7rAVYyBeJHVnfavaTfH42NkaD2wzG48wTSXOPB4/wN082xKG/5E5nh+HnX61ykRYeE6mycGqrjaJchHhY8O6Yj89Jvv0Z1vp9NZ23DyXkRfsp5CrAFa0X/7+0vY5vp/CdF1T7t3PWIe0YwWykj2N+2Nt6yPKQHNz5rRu3cm6Lp+wVdMn/dgeK6ajbovmjzajz0gkz/KEZoSsu3Pu0YIPjYy9/R4Jrlscezbx+87qiMVgCOSEMD0PTCESNLN0zu7+ZjtuL/II5veL46478yOxOss9G81EvTbZ7cK0rsV7591NFbp19fsZfXYTEYTnKTfPZYXVecp+ghwF0Wb2OZlyF7FPTcJtH0qfws11JffuZ6zDAmVamot+su0IzAltfDNBH9wf4fKsj5ZK/ZEXHyzWqZ4umxBls64XgJlkO/KcCbtg66dJ3uHRB06hcl0Jxka2Wy82TNtNI7ZsdkU2U+gSgummW6ZCGzDNk9jUbfSu/LkV+eDxZksUzMqWqa3iE9q6yOrGwP6G62gkRKA6140lN89lH51cuvJ67bqsQiEConK/nyBXAboY9Lm/tH2O76egY8O6pty7nxZuqfWpvKld9JNtR2BOaOObuA4NlxhMQHyS6WBmnTC9D5hClG3qIr4vHWlzSjdX2GaUHhIdnfn3+T0S7DZM4Odf5CADzNI8MIUuIRg3vZ6xmtEOTGGaJ4nZPnpX/ryO8iEDhO6ajtR9AGNdQZ3DSyLp1tXvZ+lTA5N1QnDzXPZ5xn4CnVaajzajz7buN7AMh/ZTGNe14t79rAHy+PUnKi36ybZjXnzs4hu3PsBfwQQ3gmFb3C5mky3KRoCGW9142vzm1ufoST5kQAUBY2/Thm9yXQm2Lc4dyZ2HmajfYrorkv7E8m2FQJzj5qxH6z20dad5ksjno/fmV8ffr6/4EaJE11bCRjRRWe9YV9i/YTalHkSzn9aYNmA995l3uHku+8Q6Shtt9e/tp6Chdce8TQ2zZ88JPHMEHMFm3N7PzWzXteLe/bRwz6zPAgpjkTYXj+6OtmNefLSHsW7N04EJbgRdfKw79iH2BaYQZaP/OJdvnzvQCW1vuWK3jSPnflkJjueg7G/xbn4/2iT2t/crzcF0NcRTJuhP86DEKk/vjn6Sg/kR7EseL67NyRcAmO5DMq+7ekk0WC7zZ8U4lshTGUpX+vxDAx3P3s/Jei1+aLMpmsOdf2SSvxSY7icY1zVlbNQHFlj4ltCquFky2c9AoE2NkDZzXnxc1+2HLFr86p2118S3AfXlD4ay21AZOfQ6MldQgkEu1G0jW90594+X4EeBzbr5Cnlz8hXgdkEHhnvzerqbiobFhjly7rns7Oe92Guxf4m+nmvc82dz77ljV6fXOMR8mYoS7Fzjau7oLBYoK3T7JEJyvcNoarnt557Lzn7ehW/+I1L9kGvc82dz77nrns7ij5w7Jdj59Ktpn2tvHLZ9btcIt0/CWw3293x6LniTMuVRJ3hkPw/izZ79yQ+ctZ+fwjfO3XZP9qmP9029lYoSTAghp0EJJoSQ06AEE0LIaVCCCSHkNFSC7Zt2wuQryoQQQp7H9i5Yv333Ht+0JYSQX8ImwfojFI/4ERxCCCEHoQQTQshp3JBg/5ltSjMhhDyBIsH6XTnVWrcNSjAhhDyPTYIF/41m/mgEIYS8hBvvggkhhDwPfjuOEEJO49i34/ilCUIIeQI3Jdh/de63/Zt1hBDyAm5/IQLvgynBhBDycDYJVqUdfkHZ3wXza8SEEPIEVIL9aw3DF3z968DUX0IIeQb//e//A0deK6+7O+GcAAAAAElFTkSuQmCC;" vertex="1" parent="urEJ1hMdNYAi65u0rG6w-11">
          <mxGeometry x="45" y="60" width="470" height="286" as="geometry" />
        </mxCell>
        <mxCell id="urEJ1hMdNYAi65u0rG6w-13" value="&lt;font color=&quot;#ffffff&quot;&gt;HS001&lt;/font&gt;&lt;div&gt;&lt;font color=&quot;#ffffff&quot;&gt;5&lt;/font&gt;&lt;/div&gt;" style="text;html=1;align=center;verticalAlign=middle;whiteSpace=wrap;rounded=0;" vertex="1" parent="urEJ1hMdNYAi65u0rG6w-11">
          <mxGeometry x="250" y="110" width="60" height="40" as="geometry" />
        </mxCell>
        <mxCell id="urEJ1hMdNYAi65u0rG6w-14" value="hs2" style="swimlane;whiteSpace=wrap;html=1;" vertex="1" parent="1">
          <mxGeometry x="40" y="430" width="560" height="370" as="geometry" />
        </mxCell>
        <mxCell id="urEJ1hMdNYAi65u0rG6w-15" value="" style="shape=image;imageAspect=0;aspect=fixed;verticalLabelPosition=bottom;verticalAlign=top;image=data:image/png,iVBORw0KGgoAAAANSUhEUgAAAdYAAAEeCAIAAAC4w6PUAAAAAXNSR0IArs4c6QAAAARnQU1BAACxjwv8YQUAAAAJcEhZcwAADsMAAA7DAcdvqGQAADR+SURBVHhe7Z3rYSvJqoVPAGeyOblMJjsRR7LzuEFdYAFNvVotW1JL7fX9GDcUBdRDyxo/tv/zX0IIISdBCSaEkNOgBBNCyGnsSfD//vz9P+fr33/+ce+T+UerbuX++effr//7++d/D67+j5X54bpW+xPJHeneBwghpOX2u2DVwF8jwerVaneU6/bHM3/9C7PjG/kJIRfml0rwigdIsCvwPAMlmBBScQn2N4Wg1YipBKvPaYaKv5GhlX9kR4Lb/8G/URfBX/9uI1m3ZNmS1NTBJv0lf1NX6CXY7FFn781v8X1amQCTEHINVIIhGvJyh6ujkxhB1CGDXRhSNQbpEVb+KY3MOjYZA/E/+G6s66Zeo9UaD8Z1CdNU4pyuF4x5tiUMX444nh+am361homEkE9HJRivddgjU6lKqjSY8qiBoWTln+JvXqNcvgue+V2hpvlzQpieB6YwXZfOsWpuD9T1gmkewfzQ4W3orvxIrE5bi7gthBByHf7TSdXIKDE2o1A0ZRtphWblH5lJrc1p2+jaHvPPJHgzhXFdgs4ZOtxZrzDNk9jUbfSu/LkV+YB4QshlcAmWV707BgbtUzvj1Ro1BaIyvLNe+Sud3Kwl2G2YoOZP3fIhtTQPTKFLCCKqhFncznqneZKY7aN35c+jkQ8ZQAi5EvqFCH2hF5no6CSmSgaeUzIqmORGYeVPlhKMWjFXjd26nQSPdbt1gVjc5ry53mmeJPL56L351fH360sVeJ6fEPLR+E9EmAoHJgH+jrLBhaAM/P3zZ3vXZvoRFB1Z+aesJDieg1v5+/5Df3fWBboa4pmud5Wnd0c/ycH8CPYl737SIoR8Li7B1wNamO+CPxRI8KevghCyghL81qgAD++jCSGXgRL8pvjXK6i/hFyay0owIYS8P5RgQgg5DUowIYScBiWYEEJOY5Pg/Knbv/xFLEIIeQmbBOMHUN0ghBDyfFyCr/FTtIQQ8llQggkh5DQowYQQchopwf/mv4ZDCCHkNfwnfhBC3gFTfwkh5KXEu2D9OgTfBRNCyEvh14IJIeQ0KMGEEHIalGBCCDkNSjAhhJyGS7DAX1AmhJAXs0kw/5keQgh5MZsEE0IIeTGUYEIIOQ1KMCGEnAYlmBBCToMSTAghp/GmEoyfU+Y/HkQIuTYXl2DNov/6EHWcEPKOXPwLEZRgQsg783QJjl999t/7EPLXoDEQvxGy/UoI3gAb27tgc24mfpEkp2zZI6YkSVSM+/hWoP33U6jahJCX8CIJFqC8VUl9wPTOojaJFEwMe81FEjXLqExNv7qLgEZWNwGmbs8lgBJMCHklL3sXXDXOpdYk2GW0U1ihiixAIjxjEM+VSO+zRgmuDagZETAJIeSVnCLBblZJHRklODIJo4wW9iW4C1YowYSQc3i5BIcoyjMG4B+ZSHBqsCuwDkHTxfKYMiREtZKkNEAIIefyagmGruL5XgkW1Gnf2ts0vUgwnqvmxuCWBP2s6o4ZCCHkebzu23FO0b6pBPfxyqahLpGqwJtElgl///xp3gULmGB4nr5EiacEE0JeyavfBRNCCEkowYQQchqUYEIIOY2nSzAhhJAVlGBCCDkNSjAhhJwGJZgQQk6DEkwIIadBCW6I39pofvXjUXS/EvI3fqn6IXTJFfsFk8792KKEkB9ycQlW/bnnV92eJ8GeefGL0ff2uYP+el+pYmV9Of67f4seCCGvhxL8IkKB5528RoLD1EowCSHnchEJLv8QhMucKV6HS4+LUswRr+WoU4pmuYZlhU2/xv/3z1Qjq399YqdPoazLW7L42p6G1Lpq70hwG89/E4OQc7mCBKvILERkOuSqZ/7xXaGJUi/BKYsuYDaaYpdZdMKaTbGHLwVEF32f0geesy5EM/1qtROzKzBIcNMqJZiQc7mKBJuKuF1YSVuKbKdowlSCR8nrJiIIz/tA9EyHt6LTPitZV55RWJ0z6c9RsC/BhJBzucgXIlRXQCtkU2mDKLkxcFCC5XlfCvexhrcq0z4tayECUlXzAfHglgTr+F2tEkKex6W+HQdNqgKk9iBtECU3Bu6T4GSdcEoooacd++y0stZNxZcPGZDotB0JbusSQs7lUhIs9AI0UxyIkhsDNuW2BJtEfl/Loq+Sts1WJRjPffzfry9V4L4BDV1IsD17TuCZy3oJIa/kChIMFXGKToEy6oI1lWB/B91guRYSLM/9hKF0pU9/sE+n/2sgLp1Vasf+Lb5z50JADnd+QshruNq74Jdh2uVaqaZpotgwnw3KPUQ3Q8wpwYScACX4m4TkhgTbu8mXCVkU/2k5fxf8iFSEkG9ACf4+9vZx4zX660Ufor/IRf0l5DwowYQQchqUYEIIOQ1KMCGEnAYlmBBCToMSTAghp3ERCY5fMfh6+G95ZeJibj+Ldhx0+Kifmig/jNEv2Rs2tNFiCuLxOELIG/BLJTiE9HYwNFeA7MI8V4JVf+NTgj6XhaBK1dkoa83Hr2FgiBByOr/0CxEhpLcF0TXtzxd07XQJ7hrofk3OzKa9KsFhfqd/QsgzuIIEq6o4RWtce+x9n+K6U4KTPUkKzfpXNdj/yYXtadM+lz7TwKj69S+q1Xh4lCrH2SVi4fQCMSYj7iwxAirj+bYEW7qM3+pGjPV3JL7pH2FdY4SQm1znXbCJQNUOiJ3rkQtJjI5CtiI11zU4Z4a2eZgUgDu0COWhuTnTPDrFDO8WjVuapk+fsFXTJ/3YfiUB01G3RfNHm9FnJJJneUIzQtbFAtKf65LnaMGHKpRgQr7HxSV4KiXCjpp0pPZpBkmX5iJ/thGBOaGNbybog/sjXJ710VKpP/Lig8U61dNlE6Js1vUCMJNsR54zYRds/TTJCSE/hBJ8g9RES1je1C7yZxsRmBPa+CauQ8MlBhMQn2Q6mFknTO8DphBlm7qI70tH2pzSzRW2GaUHQsi3oQTfwNJoqDzL49efmLnIn23EvCzVxjdufYC/ggluBMMy3S5mky3KRoCGW9142vzm1ufoST5kQAUBY2+EkHv5pRKcSgRzhyqR+iwgUZEhPLo72oh58dEesh9E6dySpwMT3Ai6+FhHrCvWCVOIstF/yG6VYDw3eTTN/K9yAJ1QevMMUYgQcpCPl2CXpAbTktAeD1NN2SRGgGYYS6ERLM0WYLPcLJXtZyBQViOWErzR6Fc7ZNHiV+9Mmpv4NmAhwRu5IUIZuf1XOQRzBSVYyJZqfkLITa7zLpg8kPxM4vYBQrQpwYTcASWYTFA5bd/n7uPvgu+ZQggRKMGkwb/acJf+Yg71l5D7oQQTQshpUIIJIeQ0KMGEEHIalGBCCDkNSjAhhJzG20kwfrxp+uOl5VcJZLwJiF8N6P2EEPLOfJIEg/ilAUowIeTjuYgEE0LIJ/J0CQ5J9R/5FyCvndSqsNrP9ocf72q3+GSU4C209Qv+5hiU3x3wfwOBv01ACDmVF0mwACU1Q4VyX4LHeIQJq3fBox8ymyUqlGBCyDvwsnfBrnT5T3ntS/AYD1Mw8WykFox+ONwghJD34xQJNqW8Q4I3UzgowV0eQgh5Q14uwWrd8y444mEKd0mwzIRJCCFvyKslGDqZfn+2x6kEZ3xyUIIFy9rId8KvBRNC3oHXfTvOKXpaRspfnVjE934FE+Z+zGrGiuBSggkh78Cr3wUTQghJKMGEEHIalGBCCDmNp0swIYSQFZRgQgg5DUowIYScBiWYEEJOgxJMCCGncTUJvvm7c/f+hMZjf6ID2aYdEkJ+IVeTYPySnRuF9FOCCSHvw6Uk2PRt++3kpPrPlWBCCKlcSoIhlm4Uqj8kVf8LqrzavxxhxD8fMcQ3Er/Faxr1W9z2Jhf/GAXegG8lS4AQb42BD3XSr2miJR+I2kgOSj/bXELI23IdCR7/ZWHQ+VPv4DFDHvUZcRZlzyZ5XXz65VkGMm2Jb8u55abQeTx/1M1+bkiwgHJq6JP7I4YQ8hFcSIKLSFU6fy9tORwP7k89W0thpfoxAX5x5zPQSM1XCxUzh9d1dSCmVMU3/7YEQsj7cxEJ7gQrGf0zCTY9MwFruSHB/ZTGryk7WQdZcG5uk5d1MQB/x9ZRBBNC3pmrSHAIl9vB6O+lTS2Tq3iAP1lJIbRbHju/PmfV4kxs3tZSb6a9qCvPGIB/CubuxxBC3oGLSDAEyo3C6O+kDYKX/lG2VlJYJRjPKZEeZv8MfU5MLFY11k3MjbpqeP6tHzxmfjRk4UtQxA1CyLtyBQnOd5tuB1O/S1tSdKofKlK4fDfq/P3zZ/NrGIRV56WnTa54bxFs1CTbjO2viogfDSGmUrI0eQghb8sVJHglSSs/IYS8CR8vwXgLOfn//YWfEELeh4t8LZgQQj4RSjAhhJwGJZgQQk6DEkwIIadBCSaEkNOgBF+Q6Q9EE/JY7JptP/lOvsfHS3D3qxM/YftNiGMXq8Qbj/5tiHv7AdgQ6cXtNyOOy5fzpM8W8YswPxKI1f53v2Xz8K3Gz1MCKezeB/HA14tgG/GjTSaU4J74eeLbCVHYjadxvB+gXT36k8FNjhc9V4K/sTnd/nvmxbl/I/8ICsrDvUc/Mvbz2NfL/m6QI1CCez5agm0zHq9oN4myt+vGcXnki79mcrzPpJdgTaE2zI5v5O/AfZYc+vz2EiycdeUuw2UkWP8L8nr5p2invIoWfvAQCdYcib0GuqsfyuNmiT/UT82fOQWt0b7kQLPiCJjuQ/SZFZpX11i3pgiaKR2xDR5QJXjnXMa6Q5/uF0qWLcl+nyV/U1fo9t+/ShB7mNyb3+L7tDKhDNmkA5/jp/u26if2Lce3JoWtz7JATEA7GIEfIOHgtOiShKy4iAQLcknENENvofvjBt/0wxTs8jSeFTa3EDmRAM8aYxcxrr6n1SpxQWUg/Tq3vbhjP5nT7QKyuhHg5ZAlwI39sQLir/3s1N0Z6vD0DTZzfS7T5NGnr6vGg+k5TlOJE0mEul4w5tmWEN0mx/NDpNKvVkzslrbPzr652S2nTV7Xi4Ysajh3AW1HRoQB9bVbQQk+ztW+EGFnbyfv7uo3e+GHKWSg22vGmyd0dzQsv7xZKNuEmYz+sR9NVEok+fpwO0ACN4Ll/qz7XNUVvPCwnJFZXZu56Eeep3X7PiMPTCEX5LZxs8+6XjDNI5hfyR6Eu/IjsTptLeK2Z8v796+vOcrr5Bk7+yaM/azOt9vA6EhNfYwS037GKuQ4l5Rguy/xMfwetvLDFLqAHTDTjSDrwFTLr3hTSKvErbWRQnubp/1sM0owSogDJhgXCJb7s+5TmNYVvHDb5JSs42YWWPQDc6zb9xnzYQpdQjDt0zIV2oBpnsSmbqN35c+tyAdxZgarK175oLZlmnB737rltAE6HeXU3eF1MQHxU8Yq5DiXk+C8Dv3VDHvhhyl0ATtMr2Y2ADPbWV59qyePnR+msNOPv26iB5iZCkydQpd225dFnzBBV1fwGgc2LdLXujZz0Q9MUOv2fUYHMIUuIRj7/Mn+CzHbR+/Kn0cjHzIA1fCsw66E8+pC1163b7N+1LftW/QzbmCCCW7MuBlAdriaBOcNxl3Mm6EGrtrCD1Po7vQO05tXX3IoFXU13Huzx9qPx2PCPf1g0I3ZS06waup121jvD5blwRo1JBS6urGIeZOVSB/5s8CiH5hJ1l2de2L5+n0b+3zA/pf4e/Or4+/XlyrwJEO9Jxgd2d+3mg2szrfezw5McGMAEyWH24Z3td43klzn23FOuStxD4x6L2f+Po/S3N2RfkKmygHxxBVv/NJl8Zc821/f2OmndL8VBZiUL7CkyZX9rPdhfInK805docvl3oFIH/mjQDwHJf+07urcb57j2GeZcHv/e3f0kxzMj2BfcitwTbxeoEmVymrfQD8WB4DRer792sKPCRY+wSZpqNtGphqvIun4eAl+c+J+vu4i6kvutRVPoZOSDwXq+bmrwCnIdXO7EJ9cKME3oAQ/l9dLsL8BWb9tuQbXkOBP/3y5ut5+CX/BW4GfQwl+Lq+XYKH+3/1V+XQJtveIny1Sds3kBPr+8f6X+nsQSjAhhJwGJZgQQk6DEkwIIadBCSaEkNOgBJMlv+HbeuR0Vt/W+yV8vAQ/8Dvj9nM04PaFwE/dSGAxv6lWpa7x6G8l37WuBBsrvbj9ZsSx+3Ke9NnCf7jqnn0bWe1/JHcevtW2J44Udu+DeOxPpNhG/GiTPxdKcI/d29u3wcr+FfCyh3lTAiKqCcMC3HgaB9eVTFt9NseLxrF75Isl+Bub0+2/Z16c+zfyj6CgPNx79CNjP4993e3vxrWhBPfcJcF//nzJzdzMq0jwweU8nOn+TIlj98gXf83keJ9JL8GaQm2YHd/I34HXheTQ57eXYOGsK3c6l5Fg/S/Ia+GfWp1y+xd+cJ8E/+9f1WD/zXu/QNP81RV4vA4tJFh7SVDIkm9rdOVxs8QfWlfNnzmFWE0TLDQri4DpeqPPrOCLBWPdmiJopnTENnhAleBpP2CsO/TpfqFk2ZLs91nyN3WFbv/9qwSxh8m9+S2+TysTypBNOvA5frpvq35i33J8a1LY+iwLxAS0gxH4ARIOTosuSa7HRSRYkMMV0wy9Pe6Pm3fTD1OwQ288U+LCSLhdkDD382cUTGAxhZiLRvC8pbf8khF+7TYSykD6dW5baFzXtBmArG4EeDlkCXBjn62A+Gs/O3V3hjo8fYPNXO//NHn06euq8WB6H6apxIkkQl0vGPNsS4huk+P5IVLpVysmdkvbZ2ff3OyW0yav60VDFjWcu4C2IyPCgPraraAEfwA4zO0K5h10d/WbvfDDFDLQ7QV5hzRewtPczZ9RMAFmuBFkQpg5sV+vpB8SCqN/XJcmKiUSlJABtwMkcCNYrXenz1VdwQsPyxmZ1bWZi37keVq37zPywBRyQW4bN/us6wXTPIL5lexBuCs/EqvT1iJue7a8/Osbb88lJdjOOT6G38NWfphCF7Ai75ZlwP+QmbmbP6NgAkS4EWS/MHNiv14pFwltpNAWmq5rm1GCUUIcMMG4UWC13p0+hWldwQu3TU7JOm5mgUU/MMe6fZ8xH6bQJQTTPi1ToQ2Y5kls6jZ6V/7cinwQZ2awuuKVD2pbpgm3961bThug01FO3R1eFxMQP2Ws8hu4nATnMfZXKuyFH6bQBazIQvIsj19/btSFOb1kWIAbQc0v5MTl1bdC8tj5YQpdYxV/3UQPMDMVmDqFLu22/kWfMEFXV/AasyY7In2tazMX/cAEtW7fZ3QAU+gSgrHPn+y/ELN99K78eTTyIQNQDc867Eo4ry507XX7NutHfdu+RT/jBiaY4MaMmwGX5GoSnDcPdyhPVA1ckYUfptDdxRX1qumz/h8fCuzlt0GflUxvXn3JIaWnt8KIx2P4SzwmmF9zGeZbrguDbsxecoJVU6/bxmq9q5cozKSrG4uYN1mJ9JE/Cyz6gZlk3dX9SSxfv29jnw/Y/xJ/b3518K9vfCbX+XacU844zs+o92nm7/MozZ3riAvjAZbRzVVd0I2Jpy8cU7aOxCPTRr+stvhLHv71jaDkn9Zd3Z+b92Hss0zgX9/wUCX8mGDhE2yShrptZKrxKl6Gj5fgX0Lcz9ddRH3JvbbiKXRS8qFAPT93FTgFuW5uF+KTCyWYnMrrJdjfgKzftlyDa0jwp3++XF1vv4SXfitACf4MXi/BQv2/+6vy6RJs7xE/W6TsmskJ9P3j/e+19VegBBNCyGlQggkh5DQowYQQchqUYEIIOQ1KMHkYv+Hbd+R0Vt+++1A+XoIf+B1t+/kXcPSA8TMzQLTHve9EaXDDvsn84J8EQML33AQhluvrfdJnC/8hqp8JRDmyJk8kdx6+1bYnzgMvBnjsfbON+NEmvw+U4B67h4dOFy+ILP2/P18Pf0lrCdNLt38AluXGE/btga0e53jRWK5HvliCv7E53T30zIsf0/5G/pG8IcdfAivGfh573/Z347OgBPccvH94y/DAulMe8tIC+QIDD35JRKNuv4rj+xPL9cgnSfCKb5xjL8GaYnle38jfgfsgOfT52Etgh7Gfx79Oo4bbH8tlJFj/C/KYMRSU27zwg6MSvA5DQxag4FqD8PU/cL75I2dtMdgu3DTPTl1B3RMJzjpbcmHsJ+JzpInXsdJJ0ux0BEz3fz9/6UcniKemCJopHZ4+OqwSvHMfxrpDn+4XSpYtyX6fJX9TV+gumH+VIPYwuTe/xfdpZUIZskkH3mBO923VT+xbjm9NClufZYGYgHYwAj9AwsFp0SXJ+3MRCRbksMQ0Q2+D++Mm3fTDFOwQG88Unbg4actZL54+iR+JEaPPMV1C0HznF6ZVdvJM64I6S+j27WY/Ee85azxMsfCcxGvZY8Bq/3fy60CpVdkZ6ojlVmzmoh9/HpJ3+1bjwfT+TFOJE0mEbj+FMc+2hHKO4Hh+iFT61YqJ3dL22dk3N7vltMnretGQRQ3nLqDtyIgwoL52KyjBJ4DD2a5U3il3V7/ZCz9MIQPdXhBXwu+04VdEhyLDVlcftjs0vVJCRLk/q8AUdvJM61qUAtsNDdDwDOjqJunficeQWBhKuoog0kSe6HMnvw6YgaGKFx7aHpnVtZmLfuR5WrfvM/LAFHJBbhs3+6zrBdM8gvmV7EG4Kz8Sq9PWIm57trz8Kxsv55ISbOcWH8PvYSs/TKELWFHvh1BvEjLCn1idDo/vh8qt0pH2ku3kmdZNsCw3tGGEe+Zof9nPXrwNiYUhMG4sWO3/Tn5Bx0ozcApeuHhWZB03s8CiH5hj3b7PmA9T6BKCaZ+WqdAGTPMkNnUbvSt/bkU+iDMzWF3xyge1LdOE2/vWLacN0Okop+4Or4sJiJ8yVvlELifBeSz9FQl74YcpdAErcHVyouXZuzrZmNsBGpABNz2Nh+VqYAqrPMK0boJluaF1Ee55su6qn1W8PkdPGAJTp2Dpt+3dzmOdP0GMBLl9z4sw0te6NnPRD0xQ6/Z9RgcwhS4hGPtc7TNMYZonidk+elf+PBr5kAGohmcddiWcVxe69rp9m/Wjvm3fop9xAxNMcGPGzYCP4GoSnDcJdyJPSA0c+cIPU+ju1g6WyG+PpfXn6c1AnzO/t5DPtZ8YLO0t8gj7N1IzldHlS2LRzyoepo4VE1ij6nXb8JzRiRe7lT/R+LqKmO/2mkgf+bPAoh+YSdbt+kx/Yvm2QmDsc7XPGBWmeZLI56P35lcH/8rGe3Cdb8c55cziPIx6P2b+Po/S3KEp7RyPX12dvkSULt7+ryEIXa/i2cuzvrKap9kchHuhfEnI87SfnXg1bU6OJiXV1ufO/k/zl+gtPulyuXcg0kf+KBDPQck/rdtvfmxp71eafsY+ywT+lQ0PVcKPCRY+wSZpqNtGphqv4tvy8RJM3gR9yQ2vw+vRScmHAvX83FXgFOS6uV2ITy6UYPLL8Dcg67ct1+AaEvzpny9dgIf+/RJ+1NIoweRh1P+7vyqfLsH2HvGz9deumZzAoL9Y26ctjRJMCCGnQQkmhJDToAQTQshpUIIJIeQ0KMHksvyGbw+S01l9e/AgHy/BD/wOtf08Czi6ofgZGCCvdfe+E6XBDfum8TP2zXj0t6S/cS4CFviehyLE9vtynvTZwn9I6559G1ntfyR3Hr7VtifOQy5q5YH3X7CN+OYmU4J77NwP7SYuYJb+tX81A4nceBrHzwU8cOuOc7xobL9HvliCv7E53f575sW5fyP/SN7Ye49+ZOznsbqxvxv7UIJ7Dp43PkU/sO6Uh1xlkBcaPHDfkMiNp3HX69AW93hFu8nx84rt98gnSfCK430m3f6H5swzfCN/B+6n5NDne45+ytjP43Ujarh9mMtIsP4X5LZiKCi3Z+EHB897JwwNWYCCawTC1//f+uaPnLXFYDvgaZ6duoK6JxKcdbbkwthPxOfIFo8BPHeUPN5q5PG52m1Zwlg3mW54zZ85Ba1R0ibNyUfA9D7srFcY69YUQTOlI7bBA6oET/sBY92hT/cLJcuWZL/Pkr+pK3T7718liD1M7s1v8X1amVCGbNKBz/HTfVv1E/uW41uTwtZnWSAmoB2MwA+QcHBadEkychEJFmRzxDRDd9/9cXI3/TAF27TGM0UnLnbWctaD1ifxIzFi9DmmSwia7/zCtMpOnmldUGcJ3b7d7CfiPeekblJ7q/tc8mR+3e3dujCF8Vwyp9sFZHUjwMshSwBfV+3TqtxY76LuzlBHbH/FZi768echefTp66rxYHqfp6nEiSRCXS8Y82xLKPcKHM8PkUq/WjGxW9o+O/vmZrecNnldLxqyqOHcBbQdGREG1NduxS+S4O0I8wzdXf1mL/wwhQx0e0Ecgd8hw49EhyLDVlcftjObHqEQUe7PKjCFnTzTuhalwHZDAzQ8A7q6Sfp34jEAf9ItMKy9PJXRrx6dt3k0USmRoIQMuB0ggRtBtBP9ZJn99c7qCl54WM7IrK7NXPQjz9O6fZ+RB6aQC3LbuNlnXS+Y5hHMr2QPwl35kVidthZx27Pl/QV/xeOSEmz7FB/D72ErP0yhC1hRz0OoJ4eM8CdWp8Pj+6FyijrSHupOnmndBMtyQxtGuGeO9pf97MRP60a4x6t1K8+0LsKE6blsM0owSogDJhgPGnRpM2ynT2FaV/DCbZNTso6bWWDRD8yxbt9nzIcpdAnBtE/LVGgDpnkSm7qN3pU/tyIfxJkZrK545YPalmnC7X3rltMG6HSUU3eH18UExE8ZqxzhchKc29AfSdgLP0yhC1iBo8qJlmfvqLIxtwM0IANuehoPy9XAFFZ5hGndBMtyQ+si3PNk3VU/q3h5ntbt+gxrmWd/HwQbn5+Lv26iB5iZCkydQpc278POepOuruA1Zk12RPpa12Yu+oEJat2+z+gAptAlBGOfP9l/IWb76F3582jkQwagGp512JVwXl3o2uv2bdaP+rZ9i37GDUwwwY0ZNwOmXE2C8+RwBrkjamCLF36YQneWO1giPy1L68/Tk0CfM7+3kM+1nxgs7S3yCPs3QDOV0eUVXPSzipfnad0mj6WpeRCPx/DP62ouw3zLc8GgG2ipnS5YNfW6bXitmOtNRJ/T9Va6urGIeZOVSB/5s8CiH5hJ1u36TH9i+fp9G/t8wP6X+Hvzq+O3/hWP63w7zil7FOs36nnM/H0epTmzKe0cj18dVV8iShfvR/7VjLabrZ+tTfGU+NJ+/v/ljbotOiDxuqIkkgBMym6TJlf2s74P0/Xu1BW6XO4diPSRPwrEc1DyT+v2+xNHvLNvYOyzTOBf8fBQJfyYYOETbJKGum1kqvEqJh8vweQjiPu5vIgPR19yr614Cp2UfChQz89dBU5BrpvbhfjkQgkmp/J6CfY3IOu3LdfgGhL86Z8vV9fbL+Hu0ijB5BW8XoKF+n/3V+XTJdjeI362/to1kxPo+8f735tLowQTQshpUIIJIeQ0KMGEEHIalGBCCDkNSjD5Fd+2Iqez+rbVL+fjJfiB3xG2nx8Bhy5KCNdTrlRpZsOqPfg74Egomd1+M2K5vt4nfbbwHx76mUCUI2vyRHLn4Vtte+I88GKAx94324gfbfL1oAT32H0+dEueKsEJ2nHjCevVdM9fRcfxorFcj3yxBH9jc7r745kXP578jfwjeUOOX90VYz+PvW/7u/E7oQT3/CoJtmSPV7SbRNkDm+zL9cgXf83keJ9JL8GaYnle38jfgfsgOfT58NVdMfbz+NdX1HD713MZCdb/grwuGArKq2LhBw+RYM0B2oDNX/oUVn4B7bgxWW9zm0seX0LE50gTr2OzJTQ7FAHTfdvPP66rpgiaKR2ePjqsErxzjmPdoU/3CyXLlmS/z5K/qSv0Emx27mFyb36L79PKhDJkkw68wZzu26qf2Lcc35oUtj7LAjEB7WAEfoCEg9OiS5Lfw0UkWJBDF9MMvVXujxt50w9TsMvQeFZo5OzSIMH2HDFaaxa/8oOaTejW2+WHs/ojXo3qzzCx8JzEa9ljwI39nOXXgVKrsjPUEcut2MxFP/48JO/2rcaD6blPU4kTSYRuP4Uxz7aEco7geH6IVPrr3euWts/OvrnZLadNXteLhixqOHcBbUdGhAH1tVtBCf5gcMjb1cy76e7qN3vhhylkoNtrspTbRjbgZrmC+liGkpUfoB03NL8vwM1ZD0L6d+IxJBaGkq4iWO3bTn4dMANDFS88tD0yq2szF/3I87Ru32fkgSnkgtw2bvZZ1wumeQTzK9mDcFd+JFanrUXc9mx5f8Ffl7gql5RgO//4GH4PW/lhCl3ADho53CTL17Hd1G2wnbjyC2jHjaHh2kNf2vx78TYkFobAuCFgtW87+QUdK83AKXjh4lmRddzMAot+YI51+z5jPkyhSwimfVqmQhswzZPY1G30rvy5FfkgzsxgdcUrH9S2TBNu71u3nDZAp6Ocuju8LiYgfspY5TdzOQnO4+2vWtgLP0yhC9hBI4eblA24PcPv7/hOc+ZHO25ETDacPWAh8jj45/H6HL1iCEydgqWf7NtO/gQxEuT2PS/CSF/r2sxFPzBBrdv3GR3AFLqEYOxztc8whWmeJGb76F3582jkQwagGp512JVwXl3o2uv2bdaP+rZ9i37GDUwwwY0ZNwN+FVeT4LyRuFt50mrg6iz8MIXuju6Q19FtA/1k/hUo4kZh9Hee5UvC+pZHi9Hn8M/jYerYsARbgHrdNtb7uZc/0fi6ipjv9ppIH/mzwKIfmEnWXd2TxPJthcDY52qfMSpM8ySRz0fvza+O3/rXJa7Kdb4d55Szj3M16j2b+fs8SnMXR2oaw+P7VFGiCS/9rPxAR5tF4YZ7TL4k5LlUPfTXLtS0OTmaNAuI+J19m+Yv0Yt1OTrm3oFIH/mjQDwHJf+0bn8osaW9X2n6GfssE/jXJTxUCT8mWPgEm6ShbhuZaryKl+fjJZj8EH3JDa/D69FJyYcC9fzcVeAU5Lq5XYhPLpRg8svwNyDrty3X4BoS/OmfL12Ah/79Ev6CtwIjlGCC91Z6/d2+Ip8uwfYe8bNFyq6ZnMCgv1jbr9RfgRJMCCGnQQkmhJDToAQTQshpUIIJIeQ0KMHk7fgN3x4kp7P69uCL+XgJfuB3uu3nYsChgwmheMoRlmY2rNoz1ms8ei337ifAAqUXt9+M2H5fzpM+W/gPad2zbyOr/Y/kzsO32vbEechFrTzw/gu2ET/a5J9DCe6x+3PoVJ4qwQnaceOh60UiN57G8f0E2tXzd7XjeNHYfo98sQR/Y3O6/ffMi3P/Rv6RvLH3Hv3I2M9jX+/7u/EaKME9x+9NvPoeVnpKXmjwwPUikRtP467XoS3u8Yp2kyh74NB9+z3yxV8zOd5n0u1/aM48wzfyd+B+Sg59vufop4z9PP71HjXcfjmXkWD9L8jjwVBQbuHCD47fm3j1TSI1B2gDNn/pU1j5BbTjxmS9ze0peXwJEZ8jWzwG8NxR+8ESIo/P7dY+1k2m+1nz1/VqjXbHQHNiETA9x531CmPdmiJopnTENnhAleBpP2CsO/TpfqFk2ZLs91nyN3WFbv/9qwSxh8m9+S2+TysTypBNOvA5frpvq35i33J8a1LY+iwLxAS0gxH4ARIOTosuSZ7HRSRYkE0W0ww9RffHDbjphynY5jeeFRo5OyQk2J4jRmvN4ld+ULMJ3Xq7/HBWf8SrUf3y7ImS2nPdn5In89e1T+vCFMb9zJxuF5DVjQAvhywBbpyvFRB/7Wen7s5QR2x/xWYu+vHnIXn06euq8WB6D6epxIkkQl0vGPNsSyj3ChzPD5FKv1oxsVvaPjv75ma3nDZ5XS8asqjh3AW0HRkRBtTXbgUl+A6wqdtVyLvg7uo3e+GHKWSg22uylNtGNuBmOXJ9LEPJyg/Qjhua3xfg5qwHIf078RiAP6kNC2Ht5amMfvXovM2jiUqJBCVkwO0ACdwIop3oJ8vsr3dWV/DCw3JGZnVt5qIfeZ7W7fuMPDCFXJDbxs0+63rBNI9gfiV7EO7Kj8TqtLWI254tL/+Kx2EuKcG23/Ex/B628sMUuoAdNHI4OcvXsd2MbbCduPILaMeNoeHaQ1/a/DvxGIA/iXCPV+tWnmldhAnT/dxmlGCUEAdMMB4Q6NJm2E6fwrSu4IXbJqdkHTezwKIfmGPdvs+YD1PoEoJpn5ap0AZM8yQ2dRu9K39uRT6IMzNYXfHKB7Ut04Tb+9Ytpw3Q6Sin7g6viwmInzJWeSWXk+Dczv5ow174YQpdwA4aOZxcNuD2DL8vo/zN/GjHjYjJhrMHLEQeB/88Xp4xAH/S9R/WMs+qLkzBxuf72a0XZqYCU6fQpd3OddEnTNDVFbzGrMmOSF/r2sxFPzBBrdv3GR3AFLqEYOzzJ/svxGwfvSt/Ho18yABUw7MOuxLOqwtde92+zfpR37Zv0c+4gQkmuDHjZsBTuZoE5w3AWebOqoGjWvhhCt2d2CGP320D/WT+FSjiRmH0d57lFbS+5dFi9Dn883h5nt68Jo+lqXkQj8fwz+tqLsN8y/3EoBuzl5xg1dTrtuG1Yq43EX1O11vp6sYi5k1WIn3kzwKLfmAmWbfrM/2J5ev3bezzAftf4u/Nrw7+FY+fcZ1vxzllr2MfjXquM3+fR2nOfqSmMTy+TxUlmvDSz8oPdLRZFG6Ux+QVlOdS9dBfzegXHP6tffGU+LKs/P/LG3VbdEDidUVJJAGYlN0mTa7sZ32O0/Xu1BW6XO4diPSRPwrEc1DyT+v2+xNHvLNvYOyzTOBf8fBQJfyYYOETbJKGum1kqvEqPpyPl2DyVOJ+Pv0iJvqSe23FU+ik5EOBen7uKnAKct3cLsQnF0owOZXXS7C/AVm/bbkG15DgT/98ubrefglfsjRKMNnj9RIs1P+7vyqfLsH2HvGz9deumZxA3z/e/75saZRgQgg5DUowIYScBiWYEEJOgxJMCCGnQQkmhJDTuJoEx88pTr/LOfETQsiJXE2CRWn/zn7QeuV/Es/+Wa5TflaMEPJwLiXB8asuw1vghf95UIIJIUe4lASrMM1+q2r045dfnNAy/5UYx79qET9Cjx/XFhopT6+AH7OvKQKfgkT+g9/mFWf3I/o6WrR17HMn/7R/YVqXEPIOXEeCV7+uPvohRl2k61cotRvbP3fiMqdTQyJ1IJ47pkNIBL9l3Z6ymSrB0z7BmH/Vfzz3dRFGCDmXC0lwEa/K6FdlG94shxJ6WAr3jkSatM3lLISuGbJ4L3Ek/7RPMOZf9S/P07oWRQg5mYtIcCdkyehfRoYkupmS1sZXiRR0DLSCqP6pBI/Sv8i/6hOM+Vf9y/O0LiHkHbiKBLvg9II1+qFNIl9uB4OEhd1KYSfBADES5PbjJHjsE4z5V/3L87QuIeQduIgEQ7jcKEz9KkkmYG4b0KyUKjVM445IsKDxReYsWV9iKoVVvvGY+ad9gjH/qn95ntYlhLwDV5BgU5+JVK38ArTOCalyFQObEwrmSSKlmiV6i0+6XOJZSaErr9L8NQph2icY80/7F1Z1CSGncwUJXkkMpYcQ8uZ8vATjrV++S01WfkIIeR8u8rVgQgj5RCjBhBByGpRgQgg5DUowIYScBiWYEEJOgxL8i9j5QWlCyPewl9XX+Ku5B/l4CY7fnPD1P0ll/HfYfrDRAlIYTZ5I7kj3PvBQUOWpyX+4P4/iqfvZJVf0uvXuHxZ9n/3MRoqpC4Z5HKxI1uP2z9AfOHX6LaoHoY0WU3jsZUisyDcPixJ8iNVLQr1a7Y5y8fPK2bAfH8yOb+RfcVeqe+u+kWS8aj9xjG5IXU3ty8fPpK96OMK9+/nAdXVYI38FyZ4mnu8CK5L1uP0D6s7rc1k4qogDphBlrfkfn8uK/Vu3DyX4R/iB33P1ewn2s5tn+Eb+KXEzj+Z5VN3X85r9FKoQCP09vHPDf8jzzssX8udL0m/meRLcNQBVzbTjyz/KRsB3+7/JtzNfWYLjrQTYYgQ9twDnF1dkG8lzLVm2JDV1sB1Ayd/UFXoJNtumNmH35rf4Pq1MgKmjQwmh5NHJ4tmpq0MSFHOa5E5tAOFZYWu+PRclU43snMuU1+ynoPaOBA/xxymt3t7P/XWN3L2fGi4J/1UN3v79vuU/X6UPkf3rX3RX4+FRat2tG4uF0wvEmIy4s8QIqIxnK6/DMIVoM/psz2WrGzHW35H4pn8ht8ZtA9Otoya4cg0J7rAVYyBeJHVnfavaTfH42NkaD2wzG48wTSXOPB4/wN082xKG/5E5nh+HnX61ykRYeE6mycGqrjaJchHhY8O6Yj89Jvv0Z1vp9NZ23DyXkRfsp5CrAFa0X/7+0vY5vp/CdF1T7t3PWIe0YwWykj2N+2Nt6yPKQHNz5rRu3cm6Lp+wVdMn/dgeK6ajbovmjzajz0gkz/KEZoSsu3Pu0YIPjYy9/R4Jrlscezbx+87qiMVgCOSEMD0PTCESNLN0zu7+ZjtuL/II5veL46478yOxOss9G81EvTbZ7cK0rsV7591NFbp19fsZfXYTEYTnKTfPZYXVecp+ghwF0Wb2OZlyF7FPTcJtH0qfws11JffuZ6zDAmVamot+su0IzAltfDNBH9wf4fKsj5ZK/ZEXHyzWqZ4umxBls64XgJlkO/KcCbtg66dJ3uHRB06hcl0Jxka2Wy82TNtNI7ZsdkU2U+gSgummW6ZCGzDNk9jUbfSu/LkV+eDxZksUzMqWqa3iE9q6yOrGwP6G62gkRKA6140lN89lH51cuvJ67bqsQiEConK/nyBXAboY9Lm/tH2O76egY8O6pty7nxZuqfWpvKld9JNtR2BOaOObuA4NlxhMQHyS6WBmnTC9D5hClG3qIr4vHWlzSjdX2GaUHhIdnfn3+T0S7DZM4Odf5CADzNI8MIUuIRg3vZ6xmtEOTGGaJ4nZPnpX/ryO8iEDhO6ajtR9AGNdQZ3DSyLp1tXvZ+lTA5N1QnDzXPZ5xn4CnVaajzajz7buN7AMh/ZTGNe14t79rAHy+PUnKi36ybZjXnzs4hu3PsBfwQQ3gmFb3C5mky3KRoCGW9142vzm1ufoST5kQAUBY2/Thm9yXQm2Lc4dyZ2HmajfYrorkv7E8m2FQJzj5qxH6z20dad5ksjno/fmV8ffr6/4EaJE11bCRjRRWe9YV9i/YTalHkSzn9aYNmA995l3uHku+8Q6Shtt9e/tp6Chdce8TQ2zZ88JPHMEHMFm3N7PzWzXteLe/bRwz6zPAgpjkTYXj+6OtmNefLSHsW7N04EJbgRdfKw79iH2BaYQZaP/OJdvnzvQCW1vuWK3jSPnflkJjueg7G/xbn4/2iT2t/crzcF0NcRTJuhP86DEKk/vjn6Sg/kR7EseL67NyRcAmO5DMq+7ekk0WC7zZ8U4lshTGUpX+vxDAx3P3s/Jei1+aLMpmsOdf2SSvxSY7icY1zVlbNQHFlj4ltCquFky2c9AoE2NkDZzXnxc1+2HLFr86p2118S3AfXlD4ay21AZOfQ6MldQgkEu1G0jW90594+X4EeBzbr5Cnlz8hXgdkEHhnvzerqbiobFhjly7rns7Oe92Guxf4m+nmvc82dz77ljV6fXOMR8mYoS7Fzjau7oLBYoK3T7JEJyvcNoarnt557Lzn7ehW/+I1L9kGvc82dz77nrns7ij5w7Jdj59Ktpn2tvHLZ9btcIt0/CWw3293x6LniTMuVRJ3hkPw/izZ79yQ+ctZ+fwjfO3XZP9qmP9029lYoSTAghp0EJJoSQ06AEE0LIaVCCCSHkNFSC7Zt2wuQryoQQQp7H9i5Yv333Ht+0JYSQX8ImwfojFI/4ERxCCCEHoQQTQshp3JBg/5ltSjMhhDyBIsH6XTnVWrcNSjAhhDyPTYIF/41m/mgEIYS8hBvvggkhhDwPfjuOEEJO49i34/ilCUIIeQI3Jdh/de63/Zt1hBDyAm5/IQLvgynBhBDycDYJVqUdfkHZ3wXza8SEEPIEVIL9aw3DF3z968DUX0IIeQb//e//A0deK6+7O+GcAAAAAElFTkSuQmCC;" vertex="1" parent="urEJ1hMdNYAi65u0rG6w-14">
          <mxGeometry x="45" y="60" width="470" height="286" as="geometry" />
        </mxCell>
        <mxCell id="urEJ1hMdNYAi65u0rG6w-16" value="&lt;font color=&quot;#ffffff&quot;&gt;HS002&lt;/font&gt;&lt;div&gt;&lt;font color=&quot;#ffffff&quot;&gt;7&lt;/font&gt;&lt;/div&gt;" style="text;html=1;align=center;verticalAlign=middle;whiteSpace=wrap;rounded=0;" vertex="1" parent="urEJ1hMdNYAi65u0rG6w-14">
          <mxGeometry x="270" y="120" width="60" height="30" as="geometry" />
        </mxCell>
        <mxCell id="urEJ1hMdNYAi65u0rG6w-17" value="main" style="swimlane;whiteSpace=wrap;html=1;" vertex="1" parent="1">
          <mxGeometry x="630" y="270" width="200" height="200" as="geometry" />
        </mxCell>
        <mxCell id="urEJ1hMdNYAi65u0rG6w-18" value="hs1.Equals(hs2)" style="text;html=1;align=center;verticalAlign=middle;whiteSpace=wrap;rounded=0;" vertex="1" parent="urEJ1hMdNYAi65u0rG6w-17">
          <mxGeometry x="60" y="85" width="60" height="30" as="geometry" />
        </mxCell>
      </root>
    </mxGraphModel>
  </diagram>
</mxfile>
